<?xml version="1.0" encoding="UTF-8" ?>
<!DOCTYPE svg PUBLIC "-//W3C//DTD SVG 1.1//EN" "http://www.w3.org/Graphics/SVG/1.1/DTD/svg11.dtd">
<svg width="165pt" height="60pt" viewBox="0 0 1650 606" version="1.1" xmlns="http://www.w3.org/2000/svg">
<path fill="#1bbc9b" d=" M 0.00 0.00 L 1650.00 0.00 L 1650.00 606.00 L 0.00 606.00 L 0.00 0.00 Z" />
<path fill="#514bab" d=" M 443.17 46.79 C 452.19 46.81 460.99 43.86 470.04 44.64 C 479.70 45.61 489.44 45.19 499.10 46.37 C 508.83 46.14 518.34 48.41 528.04 48.70 C 532.96 48.99 537.42 51.29 542.15 52.42 C 552.67 54.75 562.93 58.96 571.42 65.70 C 576.68 69.91 580.56 76.02 581.03 82.86 C 582.16 88.64 578.28 93.66 574.79 97.81 C 569.70 104.26 562.20 107.97 555.43 112.33 C 550.47 115.58 544.59 116.75 539.23 119.10 C 527.78 124.43 515.66 128.17 503.46 131.34 C 497.41 133.01 491.73 135.72 485.77 137.63 C 477.27 140.27 470.22 147.24 460.84 146.77 C 461.92 144.69 463.13 142.52 465.34 141.46 C 472.63 137.47 478.97 130.91 487.74 130.50 C 492.26 130.49 494.97 126.25 499.17 125.27 C 513.58 120.93 528.13 116.92 542.04 111.09 C 551.92 106.02 561.70 100.49 569.96 92.97 C 573.48 89.52 574.19 83.85 573.04 79.27 C 566.64 71.40 558.37 65.08 549.25 60.66 C 542.48 58.66 535.63 56.83 528.62 55.91 C 522.99 55.23 517.80 52.30 512.05 52.42 C 502.99 52.52 493.92 52.69 484.91 51.60 C 470.96 51.05 456.96 51.39 443.03 52.35 C 435.51 52.18 428.39 55.11 420.91 55.41 C 415.55 55.60 410.18 55.70 404.87 56.47 C 399.82 56.98 395.07 58.96 390.02 59.40 C 383.20 60.00 376.38 60.63 369.67 61.97 C 363.65 63.24 357.26 63.70 351.86 66.93 C 342.27 73.35 330.08 73.94 320.46 80.34 C 316.00 83.46 310.40 84.63 306.37 88.39 C 301.54 92.94 295.74 96.24 290.58 100.39 C 281.76 106.29 275.26 115.04 270.42 124.36 C 268.25 128.56 265.77 132.72 264.70 137.37 C 263.29 145.59 265.50 153.80 265.59 162.03 C 265.69 166.47 267.40 170.61 268.94 174.70 C 270.84 179.65 271.77 184.96 274.21 189.69 C 278.36 197.87 284.31 204.91 289.73 212.26 C 295.59 219.07 301.12 226.18 307.43 232.59 C 310.83 236.21 314.04 240.06 318.05 243.04 C 326.44 249.21 333.56 256.87 341.75 263.29 C 349.43 269.21 356.74 275.59 364.05 281.96 C 368.02 285.67 371.52 289.91 375.98 293.06 C 382.04 297.34 386.01 303.74 390.61 309.40 C 392.08 311.17 394.29 313.38 396.80 312.22 C 400.63 310.29 402.80 306.31 406.29 303.93 C 408.06 303.41 409.89 304.20 411.67 304.37 C 411.58 306.81 412.07 309.53 410.60 311.68 C 408.02 315.96 404.44 319.49 400.70 322.73 C 396.78 325.86 396.36 331.37 392.95 334.89 C 390.33 337.87 386.34 339.93 385.16 343.96 C 384.10 347.70 383.78 352.35 386.58 355.45 C 388.16 357.25 390.69 357.54 392.94 357.69 C 399.33 358.03 405.74 357.33 412.02 356.20 C 417.05 354.97 422.34 353.43 425.99 349.53 C 423.38 347.75 420.16 346.30 418.84 343.22 C 416.80 338.71 418.15 333.13 421.56 329.65 C 424.80 326.19 428.06 322.76 431.38 319.37 C 434.47 316.15 438.70 314.50 442.67 312.65 C 448.64 309.85 454.78 307.42 460.94 305.07 C 465.23 303.39 469.86 302.81 474.19 301.26 C 477.14 300.17 479.45 297.28 482.86 297.61 C 489.14 297.27 496.42 297.98 501.51 293.56 C 506.66 287.96 508.33 280.25 511.96 273.74 C 514.76 268.62 516.53 262.94 520.22 258.33 C 526.42 248.83 531.89 238.81 538.72 229.73 C 545.06 222.96 550.09 215.14 556.03 208.05 C 561.64 201.93 566.25 194.97 571.99 188.97 C 575.22 185.57 579.35 182.64 584.14 182.18 C 586.65 181.94 588.61 183.81 590.62 185.01 C 588.73 192.12 588.65 199.73 585.30 206.41 C 582.00 212.76 580.53 219.87 577.13 226.16 C 575.20 229.75 573.64 233.51 571.91 237.20 C 567.39 245.80 561.76 253.77 557.13 262.31 C 554.74 266.72 551.21 270.34 548.21 274.32 C 543.04 281.03 537.65 287.69 530.97 292.97 C 526.19 297.19 520.86 300.82 516.57 305.58 C 513.37 308.99 514.30 314.19 511.99 318.07 C 509.31 322.71 504.69 325.71 500.61 328.99 C 501.50 333.44 501.75 338.47 505.03 341.96 C 508.37 345.86 513.25 347.84 518.09 349.15 C 520.18 349.59 521.84 350.93 523.29 352.43 C 517.30 354.12 510.66 353.67 505.12 350.76 C 499.85 347.68 497.04 342.04 494.24 336.87 C 493.33 335.42 492.20 333.04 490.08 333.76 C 485.63 335.04 481.52 337.29 477.03 338.50 C 477.10 336.63 477.20 334.77 477.30 332.91 C 471.50 335.05 466.32 338.49 460.60 340.81 C 456.50 342.54 452.38 344.23 448.55 346.52 C 443.32 349.66 437.28 351.04 431.98 354.01 C 426.34 357.15 420.35 359.58 414.41 362.07 C 409.62 364.06 404.40 364.24 399.29 364.32 C 394.62 364.32 389.64 365.64 385.20 363.67 C 378.91 360.86 375.16 354.64 373.98 348.05 C 362.62 348.88 351.79 352.79 340.52 354.22 C 332.85 355.71 325.00 355.15 317.30 356.27 C 310.22 357.14 303.10 356.32 296.01 356.70 C 280.04 358.14 264.00 357.23 248.00 357.50 C 239.75 357.25 231.43 358.25 223.24 356.91 C 215.86 355.72 208.39 356.83 200.99 357.16 C 188.62 357.19 176.39 355.04 164.05 354.49 C 150.39 353.31 136.75 351.76 123.32 348.94 C 116.55 347.36 109.52 347.02 102.89 344.82 C 95.58 342.51 87.74 342.30 80.56 339.54 C 78.41 338.73 78.16 336.09 78.70 334.16 C 82.59 330.83 88.08 330.90 92.84 329.77 C 95.86 333.11 98.70 336.98 102.93 338.87 C 107.20 340.27 111.77 340.15 116.16 340.98 C 124.05 342.46 131.91 344.39 139.97 344.59 C 145.73 344.75 151.36 346.08 157.08 346.53 C 163.42 347.11 169.76 347.72 176.10 348.36 C 189.02 349.02 202.01 347.92 214.91 349.32 C 223.46 350.09 232.08 349.07 240.62 350.13 C 247.30 350.83 254.03 350.48 260.73 350.26 C 274.13 349.26 287.59 349.54 301.02 349.72 C 309.41 349.86 317.63 347.88 325.98 347.30 C 341.47 346.25 356.70 342.84 371.65 338.76 C 378.93 336.74 380.72 328.61 384.10 322.89 C 384.90 321.07 387.18 319.31 386.08 317.16 C 384.20 312.94 381.32 309.23 378.24 305.81 C 367.40 295.00 355.94 284.83 344.34 274.85 C 339.28 271.25 334.89 266.84 329.96 263.09 C 327.14 260.91 324.82 258.21 322.36 255.67 C 318.26 251.35 312.91 248.51 308.86 244.15 C 304.19 239.10 299.57 234.00 295.17 228.72 C 290.93 223.65 284.94 220.16 281.68 214.27 C 279.23 209.84 276.43 205.64 273.32 201.66 C 269.71 197.02 267.76 191.45 265.64 186.05 C 258.15 170.50 254.65 152.10 259.73 135.25 C 260.79 130.60 261.93 125.87 264.66 121.87 C 268.32 116.43 270.65 110.04 275.44 105.42 C 279.55 101.47 282.72 96.51 287.54 93.32 C 292.81 89.71 298.00 85.98 302.91 81.87 C 310.10 75.84 319.61 74.12 327.55 69.40 C 331.86 66.82 336.71 65.48 341.48 64.03 C 347.91 61.66 354.54 59.87 361.07 57.78 C 366.74 55.92 372.76 55.66 378.55 54.29 C 384.61 52.85 390.84 52.38 397.02 51.71 C 403.82 51.05 410.84 52.41 417.46 50.28 C 425.79 47.74 434.57 47.69 443.17 46.79 Z" />
<path fill="#514bab" d=" M 969.96 180.28 C 984.33 177.18 999.20 178.34 1013.55 180.85 C 1021.07 182.35 1025.34 189.64 1032.05 192.62 C 1035.80 192.42 1038.05 188.85 1040.35 186.31 C 1042.20 184.38 1043.79 181.14 1046.90 181.36 C 1049.46 181.12 1051.24 183.69 1051.31 186.02 C 1050.99 188.38 1049.66 190.42 1048.58 192.49 C 1042.69 203.56 1035.35 213.88 1030.70 225.60 C 1029.28 229.83 1025.30 232.34 1023.16 236.13 C 1021.26 239.41 1020.06 243.04 1018.22 246.36 C 1016.12 250.44 1012.95 253.85 1010.96 257.99 C 1008.49 263.05 1005.04 267.52 1002.32 272.43 C 995.00 285.22 986.51 297.28 978.50 309.64 C 973.01 319.56 963.80 327.23 960.02 338.11 C 966.73 333.55 971.22 326.58 977.28 321.27 C 981.56 317.57 985.43 313.41 989.57 309.56 C 996.81 304.24 1001.78 296.40 1009.38 291.52 C 1012.36 289.25 1017.36 293.08 1015.63 296.57 C 1012.30 303.65 1006.89 309.85 1005.35 317.71 C 1013.22 314.78 1019.50 309.01 1026.80 305.01 C 1032.58 301.87 1038.54 298.50 1045.25 298.00 C 1048.44 297.65 1052.15 300.37 1051.12 303.87 C 1049.57 309.03 1045.59 312.99 1043.29 317.80 C 1048.11 317.71 1051.57 313.94 1055.06 311.09 C 1060.27 306.69 1065.47 300.95 1072.90 301.14 C 1074.67 307.32 1070.73 312.90 1067.98 318.09 C 1064.99 323.27 1061.79 329.53 1064.14 335.58 C 1067.75 337.93 1072.18 338.52 1076.37 339.10 C 1084.12 340.01 1091.28 336.33 1098.41 333.92 C 1095.68 339.76 1089.42 343.09 1083.26 344.01 C 1079.06 344.61 1074.81 344.95 1070.58 345.24 C 1065.18 345.64 1060.30 341.98 1057.58 337.57 C 1054.47 331.22 1056.81 324.12 1058.77 317.81 C 1053.82 319.36 1050.62 323.59 1046.87 326.86 C 1043.00 330.40 1038.95 333.96 1033.90 335.67 C 1029.04 337.30 1024.81 340.16 1020.41 342.68 C 1017.98 344.38 1015.50 341.99 1013.28 341.13 C 1015.15 334.73 1020.71 330.68 1024.63 325.61 C 1027.08 322.42 1030.58 320.34 1033.35 317.48 C 1035.92 314.34 1037.99 310.82 1040.30 307.49 C 1026.65 311.29 1015.96 320.94 1004.14 328.22 C 999.72 331.03 995.97 334.70 991.87 337.91 C 990.19 339.42 987.84 339.15 985.78 339.26 C 985.92 337.36 985.71 335.34 986.61 333.60 C 990.08 327.11 994.81 321.21 997.11 314.14 C 990.78 316.06 988.78 323.01 983.67 326.55 C 978.67 330.23 975.00 335.35 970.13 339.17 C 965.13 343.16 960.26 347.36 954.84 350.77 C 952.32 352.56 948.19 352.22 946.56 349.44 C 945.27 346.03 946.56 342.34 948.43 339.43 C 952.00 333.77 955.77 328.21 959.94 322.96 C 967.00 313.74 971.58 302.88 978.87 293.82 C 982.34 288.94 985.57 283.88 988.97 278.95 C 993.73 271.93 997.54 264.33 1002.35 257.34 C 1006.54 250.95 1010.17 244.18 1013.09 237.11 C 1010.44 238.59 1007.46 239.99 1006.00 242.82 C 1002.86 248.08 1000.56 254.51 994.69 257.38 C 995.19 253.86 995.94 250.39 996.68 246.92 C 990.12 248.53 984.23 252.76 977.25 252.44 C 978.04 250.90 978.52 249.02 980.03 247.96 C 986.82 242.99 996.25 242.50 1002.19 236.24 C 1007.15 229.76 1010.93 222.43 1016.14 216.11 C 1019.44 212.29 1021.57 207.68 1024.43 203.54 C 1025.91 201.54 1026.19 198.42 1024.45 196.50 C 1022.22 194.03 1019.45 192.13 1016.76 190.20 C 1012.71 187.26 1007.60 186.63 1002.80 185.86 C 986.54 184.35 969.43 185.89 954.84 193.75 C 946.56 198.40 937.52 201.92 930.28 208.21 C 926.75 211.13 924.46 215.15 921.62 218.67 C 912.36 229.36 905.91 242.35 902.16 255.95 C 900.84 259.98 902.60 264.45 900.55 268.29 C 898.03 273.49 898.47 279.42 898.51 285.03 C 898.76 294.47 902.30 303.37 906.04 311.90 C 911.19 322.04 917.96 331.40 921.97 342.09 C 923.51 347.94 926.07 354.79 922.48 360.40 C 920.75 363.15 919.22 366.63 915.87 367.67 C 906.89 370.64 897.31 370.61 888.01 371.76 C 876.38 373.71 864.64 371.90 852.96 371.70 C 847.13 371.57 841.94 368.54 836.90 365.96 C 832.85 364.03 831.65 359.12 831.32 355.05 C 831.63 349.77 837.31 347.80 840.43 344.40 C 841.43 341.35 841.57 338.11 842.40 335.01 C 844.24 327.96 846.78 321.04 847.41 313.73 C 843.25 316.75 839.54 320.38 835.06 322.96 C 827.04 327.56 818.68 331.90 809.51 333.62 C 804.44 334.82 798.11 336.00 793.91 332.08 C 791.60 328.85 790.97 324.78 789.34 321.21 C 785.77 324.38 782.50 327.96 778.36 330.41 C 775.30 332.23 772.69 334.66 769.88 336.81 C 768.10 338.35 765.60 337.76 763.47 337.93 C 762.29 335.48 761.14 333.03 759.99 330.57 C 756.12 331.07 752.09 331.99 748.24 330.88 C 745.00 329.26 743.47 325.68 740.98 323.21 C 736.65 325.79 733.07 329.48 728.55 331.76 C 723.56 334.23 718.46 336.81 712.93 337.75 C 709.41 338.67 705.93 335.41 705.64 332.01 C 705.00 325.37 707.98 319.02 711.89 313.85 C 717.41 306.75 723.82 300.35 730.85 294.75 C 736.60 290.34 743.58 286.74 751.03 287.36 C 754.71 287.40 758.90 288.88 760.50 292.46 C 761.57 296.37 760.62 300.59 759.04 304.23 C 756.55 309.02 752.39 312.93 750.92 318.25 C 750.21 320.26 751.28 322.26 751.77 324.19 C 755.17 323.37 759.24 323.48 761.89 320.91 C 766.42 314.52 767.05 306.13 772.02 299.97 C 775.48 295.74 778.50 291.15 782.02 286.97 C 784.13 284.52 787.43 283.93 790.49 284.55 C 790.43 288.83 790.04 293.18 788.28 297.14 C 785.35 304.21 783.10 311.97 777.47 317.46 C 775.58 319.30 773.97 321.41 772.84 323.79 C 775.13 323.35 777.71 323.18 779.49 321.46 C 784.80 316.81 788.94 310.72 795.26 307.29 C 797.80 305.35 801.33 307.86 801.98 310.54 C 801.88 315.69 799.56 320.65 799.94 325.85 C 800.90 328.30 803.92 327.42 805.98 327.41 C 812.73 326.37 819.02 323.51 825.43 321.29 C 831.94 319.09 836.82 314.07 842.57 310.53 C 853.58 302.89 858.68 289.95 862.97 277.79 C 855.29 278.94 848.03 281.79 840.77 284.41 C 835.74 286.10 831.29 289.04 826.52 291.29 C 823.32 292.92 819.62 294.71 818.29 298.29 C 817.14 304.77 821.22 310.62 821.61 316.98 C 817.83 315.65 816.27 311.72 814.13 308.69 C 812.45 305.80 810.01 302.70 810.87 299.16 C 811.99 293.76 815.42 289.09 819.42 285.43 C 825.90 280.35 834.05 278.38 841.54 275.32 C 849.46 272.03 858.73 272.88 866.10 268.11 C 868.78 265.75 869.28 261.92 870.35 258.69 C 872.14 252.06 874.06 245.43 876.93 239.18 C 880.83 228.92 884.58 218.52 890.11 208.99 C 894.91 200.81 899.12 192.23 904.75 184.58 C 906.45 182.29 909.55 182.84 912.03 182.63 C 911.89 186.35 911.74 190.13 910.53 193.69 C 906.42 205.91 901.65 217.90 896.54 229.74 C 894.14 237.61 890.13 244.86 887.71 252.73 C 886.16 257.82 881.91 261.43 879.98 266.35 C 883.88 266.02 887.78 265.60 891.70 265.43 C 894.51 257.41 896.67 249.18 899.45 241.15 C 902.67 234.03 905.69 226.69 910.48 220.43 C 914.38 214.78 919.38 210.07 924.08 205.12 C 932.29 195.64 943.93 189.97 955.50 185.67 C 960.30 183.83 964.95 181.52 969.96 180.28 Z" />
<path fill="#514bab" d=" M 670.62 181.54 C 672.01 179.18 675.61 178.37 677.67 180.33 C 680.18 182.07 679.45 185.41 679.11 187.97 C 677.25 198.32 673.89 208.32 671.55 218.56 C 668.10 230.08 663.75 241.37 657.87 251.88 C 654.84 257.06 653.12 262.90 649.92 268.00 C 644.46 276.73 639.82 286.13 632.68 293.68 C 628.11 298.01 621.34 300.89 619.50 307.42 C 618.53 312.23 617.82 317.86 620.90 322.09 C 622.83 325.08 626.00 328.20 629.89 327.42 C 632.30 327.28 632.97 324.65 633.98 322.90 C 637.53 315.03 640.60 306.85 645.58 299.72 C 648.83 295.23 650.55 289.93 653.25 285.15 C 658.52 277.58 663.06 269.51 667.10 261.22 C 670.28 253.53 675.71 247.12 680.14 240.15 C 685.26 231.77 690.03 223.02 696.78 215.82 C 704.28 208.97 710.42 200.77 717.93 193.95 C 719.77 192.22 722.38 192.95 724.63 193.04 C 725.16 197.04 725.74 201.25 724.22 205.13 C 718.15 221.98 710.23 238.09 701.86 253.90 C 696.12 264.45 693.18 276.77 684.62 285.59 C 681.34 289.09 678.63 293.06 675.95 297.02 C 672.37 302.19 667.67 306.53 664.71 312.13 C 668.15 311.13 671.51 309.62 674.08 307.06 C 679.43 301.73 685.14 296.68 691.50 292.58 C 694.25 290.53 697.75 291.64 700.82 292.10 C 703.06 303.50 698.57 314.50 697.45 325.71 C 696.96 329.69 695.79 333.57 695.46 337.57 C 695.13 341.56 696.60 345.39 697.63 349.18 C 696.76 349.37 695.92 349.61 695.09 349.89 C 692.93 347.02 690.48 344.22 689.47 340.70 C 687.52 334.54 689.34 328.12 689.69 321.88 C 690.02 315.73 691.43 309.71 692.01 303.59 C 684.82 306.26 679.98 312.50 673.72 316.63 C 666.88 321.08 660.57 326.32 653.49 330.41 C 649.36 332.74 645.66 336.03 641.06 337.41 C 638.06 337.13 635.55 335.24 632.83 334.15 C 628.46 332.20 623.09 333.02 619.23 329.85 C 615.00 326.54 613.88 320.97 612.04 316.21 C 606.04 321.14 601.62 327.55 597.81 334.24 C 595.97 332.02 594.59 329.18 595.43 326.25 C 596.69 323.28 598.57 320.62 599.71 317.59 C 595.52 318.51 592.98 322.34 589.00 323.65 C 585.26 324.95 581.51 326.26 577.98 328.07 C 571.44 331.51 564.24 333.35 557.49 336.28 C 549.62 339.64 540.82 341.61 532.32 339.81 C 527.84 338.68 525.63 333.97 524.85 329.80 C 524.02 325.20 527.29 321.32 530.22 318.21 C 535.24 312.70 542.24 309.70 548.96 306.82 C 555.24 304.16 561.89 302.52 568.32 300.26 C 577.66 296.26 587.94 295.67 597.77 293.44 C 603.23 292.07 608.87 292.59 614.30 293.79 C 614.83 285.00 617.73 276.62 620.18 268.24 C 621.95 261.64 626.37 256.27 629.23 250.15 C 632.68 242.48 636.36 234.87 640.65 227.64 C 645.96 221.34 648.83 213.45 654.12 207.15 C 657.94 202.46 660.47 196.92 664.03 192.06 C 666.47 188.70 668.32 184.98 670.62 181.54 Z" />
<path fill="#514bab" d=" M 1321.57 180.39 C 1324.63 180.12 1326.99 183.00 1328.54 185.31 C 1332.13 193.27 1329.28 201.93 1327.93 210.03 C 1326.66 223.36 1324.97 236.80 1320.58 249.52 C 1319.53 253.06 1317.91 256.73 1318.58 260.49 C 1323.92 263.45 1330.41 262.79 1336.11 264.80 C 1341.19 266.61 1347.41 268.91 1348.80 274.81 C 1343.18 273.07 1337.69 270.94 1332.17 268.92 C 1330.08 268.10 1327.84 268.93 1325.72 269.13 C 1322.15 269.74 1318.32 269.45 1315.04 271.16 C 1310.44 274.08 1308.37 279.41 1306.54 284.27 C 1303.35 293.48 1297.14 301.19 1293.25 310.07 C 1290.80 315.91 1286.37 320.51 1283.11 325.85 C 1279.63 332.60 1276.16 339.38 1273.58 346.54 C 1271.92 350.39 1270.56 354.62 1267.50 357.62 C 1265.06 358.96 1262.01 359.38 1259.30 358.85 C 1257.38 358.53 1257.13 356.32 1256.27 354.96 C 1258.84 354.91 1261.56 355.48 1264.08 354.66 C 1266.33 353.41 1267.31 350.81 1268.26 348.55 C 1271.27 339.69 1274.85 330.90 1280.12 323.12 C 1282.14 319.99 1282.80 316.14 1285.19 313.22 C 1290.81 306.31 1294.09 297.90 1297.81 289.89 C 1299.91 283.73 1302.66 277.71 1303.65 271.23 C 1299.73 272.06 1296.29 274.13 1293.02 276.34 C 1287.86 272.61 1281.22 274.32 1276.13 277.26 C 1268.88 281.70 1261.33 286.56 1257.42 294.43 C 1253.91 298.93 1253.61 304.78 1251.01 309.70 C 1250.24 307.46 1249.58 305.18 1248.97 302.90 C 1242.72 310.16 1239.55 319.83 1231.87 325.87 C 1227.61 329.50 1222.84 333.92 1222.40 339.83 C 1223.73 343.70 1227.23 346.35 1228.74 350.15 C 1228.60 352.44 1227.30 354.45 1226.46 356.53 C 1214.14 356.63 1202.33 351.04 1189.94 352.53 C 1185.69 353.13 1180.98 352.37 1178.08 348.94 C 1175.10 345.98 1175.92 340.73 1172.79 338.11 C 1167.98 339.84 1164.34 343.66 1159.84 345.99 C 1151.86 350.21 1143.93 355.23 1134.74 356.18 C 1130.65 356.99 1125.54 355.03 1124.55 350.64 C 1123.77 345.69 1126.21 341.00 1129.11 337.18 C 1132.13 333.03 1134.66 328.54 1136.96 323.95 C 1125.94 331.50 1118.06 342.89 1106.62 349.90 C 1104.28 351.12 1101.56 350.24 1099.09 350.20 C 1097.66 341.51 1101.87 333.53 1104.55 325.56 C 1107.94 317.03 1109.62 307.08 1117.00 300.87 C 1118.78 298.91 1121.54 300.02 1123.80 300.15 C 1123.80 303.65 1123.74 307.25 1122.43 310.56 C 1120.93 315.18 1117.76 318.94 1115.40 323.11 C 1113.15 327.63 1111.57 332.45 1110.10 337.27 C 1116.55 336.37 1118.26 329.37 1122.81 325.77 C 1130.36 319.24 1136.78 311.32 1145.38 306.08 C 1148.94 304.01 1152.73 307.54 1156.38 307.12 C 1164.32 303.26 1170.47 295.93 1179.40 294.03 C 1182.53 292.84 1186.19 295.10 1187.24 298.11 C 1187.96 304.37 1185.98 310.51 1184.40 316.49 C 1183.10 320.88 1183.83 325.58 1182.27 329.92 C 1180.78 334.17 1181.13 338.74 1182.34 343.01 C 1185.18 341.51 1188.02 339.23 1191.43 339.60 C 1194.99 339.63 1198.80 341.09 1202.17 339.30 C 1205.29 337.82 1208.62 336.35 1210.92 333.67 C 1211.12 329.06 1208.16 324.91 1208.63 320.25 C 1209.19 315.50 1209.31 310.30 1212.33 306.32 C 1215.62 301.78 1219.14 296.99 1224.36 294.53 C 1231.19 291.18 1239.12 291.31 1245.97 287.94 C 1249.34 286.01 1253.29 289.95 1256.43 287.53 C 1262.49 283.53 1265.48 275.93 1272.57 273.30 C 1278.15 270.63 1283.62 267.57 1289.66 266.06 C 1294.20 264.89 1298.64 263.04 1303.37 262.83 C 1305.27 262.68 1307.23 262.75 1309.08 262.16 C 1311.24 258.67 1312.25 254.61 1313.78 250.82 C 1315.84 245.89 1315.36 240.44 1316.34 235.28 C 1317.48 228.89 1318.08 222.30 1316.83 215.88 C 1313.59 227.51 1313.31 241.56 1303.16 249.77 C 1303.55 246.52 1305.00 243.57 1306.96 240.99 C 1308.95 238.44 1308.70 235.06 1309.18 232.03 C 1309.79 225.35 1312.67 219.19 1313.91 212.64 C 1315.38 206.56 1315.35 199.99 1318.60 194.47 C 1320.10 192.22 1317.66 189.77 1318.24 187.37 C 1318.80 184.84 1319.97 182.43 1321.57 180.39 Z" />
<path fill="#1bbc9b" d=" M 568.01 208.03 C 572.31 203.69 575.25 198.13 580.20 194.43 C 580.98 196.68 581.61 199.07 580.80 201.41 C 578.27 211.71 573.83 221.46 569.02 230.87 C 562.68 244.05 554.75 256.43 546.13 268.23 C 542.20 272.26 539.31 277.06 536.74 282.02 C 533.02 285.91 529.01 289.55 524.56 292.62 C 520.67 296.06 516.58 299.30 511.94 301.70 C 511.12 300.82 510.30 299.94 509.49 299.06 C 513.93 291.22 518.07 283.22 521.62 274.93 C 524.08 268.70 528.55 263.57 531.36 257.52 C 534.72 250.50 539.64 244.43 544.06 238.08 C 548.13 232.22 553.34 227.30 557.64 221.62 C 561.15 217.13 563.94 212.07 568.01 208.03 Z" />
<path fill="#1bbc9b" d=" M 658.15 216.11 C 660.14 212.98 662.56 210.14 665.26 207.59 C 663.87 229.89 651.55 249.11 642.57 268.92 C 640.99 271.97 638.34 274.27 636.36 277.04 C 632.51 282.70 627.99 288.20 621.98 291.65 C 624.09 283.23 625.89 274.58 629.90 266.81 C 632.24 262.19 633.70 257.08 636.91 252.94 C 639.64 249.35 641.12 245.06 642.99 241.01 C 647.29 232.27 653.13 224.43 658.15 216.11 Z" />
<path fill="#1bbc9b" d=" M 700.43 222.96 C 704.61 218.50 709.38 214.63 713.68 210.27 C 714.95 218.70 708.80 225.49 706.08 232.97 C 702.68 242.70 698.74 252.24 694.39 261.58 C 692.13 266.71 687.74 270.46 685.24 275.45 C 679.34 284.35 672.53 292.61 666.60 301.49 C 665.01 303.83 664.11 306.96 661.29 308.15 C 654.25 311.17 650.48 318.65 643.24 321.38 C 646.91 312.68 651.11 304.17 656.31 296.28 C 661.10 288.31 665.08 279.88 669.87 271.92 C 674.47 265.35 677.28 257.67 682.41 251.46 C 689.20 242.46 693.48 231.85 700.43 222.96 Z" />
<path fill="#514bab" d=" M 1088.86 239.32 C 1090.68 239.67 1092.64 239.70 1094.33 240.58 C 1097.13 242.72 1099.01 245.83 1101.82 247.99 C 1103.68 249.50 1105.83 250.69 1107.44 252.52 C 1108.08 254.21 1108.27 256.03 1108.63 257.81 C 1102.54 255.85 1098.90 250.28 1093.51 247.20 C 1094.25 258.31 1097.99 268.95 1099.47 279.96 C 1099.89 283.07 1099.17 286.17 1098.19 289.10 C 1095.75 283.66 1094.66 277.77 1093.22 272.02 C 1091.48 264.25 1089.09 256.63 1087.54 248.83 C 1086.80 245.58 1087.85 242.37 1088.86 239.32 Z" />
<path fill="#514bab" d=" M 436.29 244.36 C 438.88 244.60 441.71 244.47 443.98 245.97 C 447.58 248.31 450.65 251.36 454.16 253.83 C 457.53 256.24 460.69 259.14 462.25 263.08 C 458.86 262.37 455.72 260.89 452.73 259.17 C 453.39 261.61 456.31 264.39 454.77 266.84 C 449.68 264.74 446.22 260.20 442.91 256.01 C 440.21 252.41 435.61 249.47 436.29 244.36 Z" />
<path fill="#1bbc9b" d=" M 876.55 276.49 C 880.59 272.58 886.23 271.10 891.67 270.48 C 891.32 283.32 891.35 296.85 897.13 308.63 C 900.64 317.18 904.77 325.48 909.56 333.39 C 913.37 339.24 916.09 345.99 916.36 353.02 C 916.66 355.81 914.37 357.87 912.45 359.49 C 909.61 361.93 905.72 362.14 902.19 362.65 C 897.08 363.22 892.23 365.24 887.07 365.38 C 878.38 365.74 869.68 365.29 860.98 365.29 C 855.28 365.10 849.53 364.54 844.03 363.00 C 839.45 361.76 837.83 356.88 835.88 353.12 C 837.77 353.14 839.70 353.34 841.60 353.08 C 844.50 351.12 845.67 347.10 849.25 346.05 C 853.49 344.53 857.90 343.51 862.16 341.98 C 861.32 341.18 860.49 340.38 859.68 339.58 C 855.58 340.30 851.47 340.92 847.35 341.49 C 847.85 333.33 851.48 325.92 854.37 318.43 C 856.87 311.94 860.04 305.74 862.50 299.23 C 864.39 294.00 868.79 290.32 871.34 285.47 C 873.07 282.48 874.20 279.08 876.55 276.49 Z" />
<path fill="#514bab" d=" M 1386.93 280.87 C 1388.26 278.24 1390.48 276.24 1392.73 274.40 C 1393.67 275.65 1394.62 276.91 1395.59 278.18 C 1391.91 288.42 1388.44 298.81 1383.36 308.47 C 1380.23 314.14 1380.16 320.74 1379.23 326.98 C 1381.92 326.34 1384.69 325.63 1386.95 323.92 C 1390.71 321.10 1395.06 318.69 1397.47 314.49 C 1400.33 309.50 1404.58 305.22 1405.92 299.48 C 1406.51 299.68 1407.10 299.88 1407.72 300.09 C 1408.25 296.59 1408.79 293.10 1409.46 289.62 C 1412.61 289.88 1414.54 292.43 1416.89 294.20 C 1418.02 295.20 1419.39 293.96 1420.45 293.43 C 1424.98 290.28 1429.80 287.55 1434.12 284.11 C 1439.17 280.60 1445.22 277.32 1451.58 278.43 C 1454.58 278.83 1456.54 282.10 1456.16 284.97 C 1455.90 288.88 1454.98 292.77 1455.46 296.70 C 1455.28 298.91 1457.74 299.60 1459.31 300.48 C 1462.96 301.98 1466.31 304.10 1469.84 305.87 C 1473.67 307.81 1478.35 306.67 1482.05 308.97 C 1484.47 310.37 1487.05 311.46 1489.74 312.29 C 1494.30 313.75 1498.52 316.07 1502.96 317.86 C 1507.12 319.63 1511.46 321.19 1515.16 323.87 C 1516.41 324.73 1516.54 326.37 1517.12 327.68 C 1506.75 327.39 1498.07 320.87 1488.45 317.85 C 1478.24 315.05 1468.15 311.78 1458.43 307.59 C 1454.51 306.06 1449.96 305.69 1445.97 307.04 C 1441.88 309.60 1441.12 315.37 1436.52 317.45 C 1435.98 314.31 1437.38 310.26 1434.84 307.83 C 1431.38 306.96 1427.79 307.60 1424.32 307.90 C 1423.96 313.44 1420.41 319.78 1424.48 324.70 C 1426.41 322.95 1428.15 320.90 1430.46 319.60 C 1432.57 319.11 1434.78 319.31 1436.95 319.28 C 1434.79 323.95 1433.05 329.55 1428.29 332.22 C 1423.90 333.56 1418.94 331.14 1417.03 327.01 C 1414.42 322.99 1416.92 318.28 1416.76 313.92 C 1416.59 310.10 1417.94 305.14 1414.46 302.42 C 1411.61 301.50 1409.83 304.36 1408.35 306.25 C 1405.54 310.41 1402.29 314.24 1399.24 318.23 C 1394.27 325.51 1387.72 331.69 1380.46 336.64 C 1375.74 339.41 1372.18 333.43 1368.04 332.36 C 1363.38 333.81 1359.34 338.07 1354.12 337.02 C 1348.79 336.23 1345.86 331.28 1342.93 327.35 C 1340.28 327.62 1337.24 327.23 1335.16 329.21 C 1330.39 333.34 1325.70 338.22 1319.34 339.69 C 1316.79 340.44 1314.40 339.13 1312.17 338.11 C 1316.90 329.84 1314.17 319.48 1319.48 311.48 C 1322.08 307.06 1326.67 304.50 1330.76 301.67 C 1333.74 299.72 1335.75 296.40 1339.27 295.27 C 1340.23 294.42 1341.17 293.55 1342.14 292.68 C 1346.36 292.66 1351.02 291.72 1354.84 294.07 C 1357.95 295.98 1361.32 298.72 1361.56 302.67 C 1361.91 306.23 1361.78 309.96 1360.44 313.32 C 1358.62 317.27 1354.32 319.26 1352.23 323.01 C 1351.30 325.05 1351.54 327.36 1351.37 329.54 C 1354.86 329.99 1358.90 331.35 1362.02 328.96 C 1365.25 326.54 1367.81 323.33 1370.03 319.99 C 1373.67 314.45 1374.01 307.60 1376.80 301.70 C 1379.97 294.66 1383.40 287.73 1386.93 280.87 Z" />
<path fill="#1bbc9b" d=" M 1444.62 285.65 C 1448.11 284.50 1450.46 288.10 1452.73 290.09 C 1451.04 293.31 1448.17 295.58 1444.85 296.95 C 1440.77 298.67 1436.45 301.34 1431.87 300.30 C 1430.98 298.99 1430.31 297.56 1429.60 296.17 C 1434.51 292.56 1438.90 287.99 1444.62 285.65 Z" />
<path fill="#1bbc9b" d=" M 736.08 301.04 C 741.27 297.37 747.73 292.95 754.31 295.67 C 753.17 298.24 752.16 301.01 750.03 302.97 C 742.74 309.35 736.17 316.49 729.37 323.39 C 725.64 327.68 719.47 327.66 714.33 328.87 C 717.31 316.93 726.76 308.32 736.08 301.04 Z" />
<path fill="#1bbc9b" d=" M 1214.93 316.91 C 1218.79 304.73 1230.77 295.54 1243.63 295.41 C 1243.54 298.47 1243.10 301.61 1241.24 304.14 C 1237.63 309.48 1234.81 315.58 1229.71 319.73 C 1225.48 323.35 1221.19 326.91 1216.54 329.97 C 1215.69 325.70 1213.99 321.30 1214.93 316.91 Z" />
<path fill="#1bbc9b" d=" M 1341.75 298.87 C 1346.83 295.69 1353.54 298.36 1356.97 302.73 C 1357.67 305.25 1357.54 307.91 1357.78 310.50 C 1353.55 312.82 1348.93 314.15 1344.16 314.64 C 1338.06 315.46 1335.18 321.52 1331.81 325.89 C 1328.93 329.97 1323.66 330.66 1319.18 331.80 C 1319.42 328.55 1319.96 325.29 1321.44 322.35 C 1323.66 317.80 1324.77 312.36 1329.01 309.13 C 1333.38 305.87 1337.11 301.78 1341.75 298.87 Z" />
<path fill="#1bbc9b" d=" M 593.05 301.96 C 596.76 301.45 600.32 300.17 604.03 299.62 C 606.29 299.13 608.13 300.85 610.05 301.76 C 603.43 307.13 595.96 311.33 588.45 315.30 C 578.71 319.49 568.73 323.24 559.45 328.41 C 551.76 332.51 542.85 333.16 534.32 332.51 C 534.54 329.68 533.59 326.20 536.02 324.08 C 540.90 319.17 546.84 315.22 553.44 313.02 C 566.35 308.40 579.42 303.88 593.05 301.96 Z" />
<path fill="#1bbc9b" d=" M 1163.74 309.79 C 1168.25 306.40 1172.56 302.18 1178.28 301.03 C 1182.64 308.72 1180.57 318.51 1175.27 325.19 C 1170.64 331.04 1164.74 335.89 1158.20 339.46 C 1154.60 341.49 1151.32 344.01 1148.15 346.64 C 1148.63 347.28 1149.13 347.92 1149.65 348.57 C 1143.16 345.68 1136.29 352.81 1130.24 348.38 C 1135.92 337.51 1143.53 327.81 1152.06 319.05 C 1154.12 317.32 1157.01 317.89 1159.50 317.71 C 1160.24 314.77 1161.10 311.61 1163.74 309.79 Z" />
<path fill="#1bbc9b" d=" M 464.87 312.70 C 475.00 309.82 484.95 305.26 495.74 306.24 C 495.33 311.18 493.05 316.04 488.78 318.75 C 484.16 321.65 479.09 323.76 474.48 326.69 C 466.57 331.71 457.72 334.97 449.65 339.69 C 444.92 342.54 439.23 342.64 433.89 343.23 C 431.07 343.70 428.24 342.22 427.01 339.65 C 425.87 338.08 427.68 336.67 428.49 335.48 C 433.04 330.31 437.41 324.48 444.05 321.88 C 451.13 319.14 457.61 315.00 464.87 312.70 Z" />
<path fill="#514bab" d=" M 127.06 326.87 C 133.78 325.55 140.60 326.91 147.37 326.56 C 152.04 326.28 156.69 327.27 161.35 326.99 C 164.57 326.87 168.10 325.93 171.02 327.80 C 169.44 331.16 165.14 331.11 161.95 331.26 C 148.62 330.26 135.18 330.59 121.89 332.12 C 115.83 332.93 109.72 332.08 103.64 332.38 C 100.83 332.44 97.61 333.61 95.35 331.32 C 101.24 328.89 107.60 327.34 114.01 327.62 C 118.38 327.81 122.77 327.77 127.06 326.87 Z" />
<path fill="#514bab" d=" M 175.02 327.81 C 178.57 327.43 182.16 327.45 185.71 327.86 C 183.48 331.59 177.05 331.82 175.02 327.81 Z" />
<path fill="#1bbc9b" d=" M 1209.90 346.29 C 1210.76 344.38 1211.74 342.51 1212.83 340.71 C 1215.42 343.01 1217.59 345.76 1219.03 348.94 C 1215.92 348.29 1212.88 347.36 1209.90 346.29 Z" />
<path fill="#514bab" d=" M 1402.05 402.90 C 1405.63 402.25 1409.29 402.61 1412.88 403.10 C 1423.06 404.34 1433.28 401.87 1443.44 403.40 C 1454.96 403.68 1466.50 403.25 1478.02 403.60 C 1486.78 402.61 1495.59 402.63 1504.39 402.98 C 1512.79 404.62 1521.33 403.23 1529.81 403.62 C 1533.76 403.32 1535.01 407.97 1537.13 410.41 C 1534.26 412.81 1530.79 414.27 1527.13 414.90 C 1527.26 413.02 1527.41 411.14 1527.58 409.27 C 1521.41 409.35 1515.24 409.46 1509.10 408.87 C 1501.62 408.09 1494.17 410.23 1486.69 409.21 C 1479.01 408.14 1470.89 407.79 1463.62 410.94 C 1467.92 417.62 1476.80 421.83 1484.62 419.47 C 1484.71 421.20 1484.78 422.93 1484.90 424.67 C 1479.99 424.70 1475.15 423.80 1470.47 422.42 C 1466.93 421.36 1462.90 420.60 1460.54 417.48 C 1457.60 414.24 1454.91 409.57 1449.99 409.45 C 1437.14 409.00 1424.28 409.70 1411.42 409.51 C 1399.00 409.15 1386.57 409.36 1374.15 409.59 C 1368.10 410.27 1362.02 410.57 1355.96 409.92 C 1344.32 410.43 1332.67 410.65 1321.02 410.66 C 1308.37 410.84 1295.68 409.86 1283.06 411.13 C 1257.70 411.71 1232.32 411.43 1206.97 411.83 C 1199.59 413.13 1192.27 411.35 1184.98 410.39 C 1187.66 408.87 1190.24 406.45 1193.53 406.62 C 1205.37 407.25 1217.21 406.25 1229.02 405.41 C 1239.46 405.54 1249.90 405.32 1260.30 404.30 C 1269.46 404.46 1278.57 403.11 1287.74 403.22 C 1294.07 403.23 1300.35 405.07 1306.70 404.10 C 1313.21 403.24 1319.82 403.28 1326.35 404.03 C 1331.58 404.65 1336.79 403.45 1342.03 403.72 C 1345.75 403.88 1349.49 404.54 1353.23 403.98 C 1361.29 402.83 1369.44 403.80 1377.55 403.38 C 1385.71 402.96 1393.94 404.37 1402.05 402.90 Z" />
<path fill="#514bab" d=" M 1171.00 407.80 C 1174.29 407.90 1177.53 407.18 1180.81 406.91 C 1182.39 407.78 1180.75 410.12 1180.89 411.58 C 1170.75 411.20 1160.69 412.68 1150.57 412.63 C 1140.06 414.73 1129.22 415.06 1118.65 413.20 C 1113.56 412.13 1108.45 413.48 1103.36 413.71 C 1090.56 415.15 1077.68 414.22 1064.84 414.52 C 1057.30 414.99 1049.76 412.40 1042.30 414.32 C 1039.80 415.02 1037.29 414.48 1035.11 413.19 C 1042.40 410.31 1050.13 408.14 1058.04 408.30 C 1066.48 408.55 1074.91 407.90 1083.35 408.40 C 1091.60 408.85 1099.83 407.26 1108.07 408.09 C 1111.80 408.36 1115.55 408.52 1119.25 409.11 C 1126.33 410.31 1133.37 408.23 1140.43 407.82 C 1150.60 407.23 1160.81 407.57 1171.00 407.80 Z" />
<path fill="#514bab" d=" M 906.45 409.36 C 910.59 408.39 914.87 408.47 919.06 409.14 C 925.69 410.17 932.30 407.92 938.95 408.81 C 945.79 409.82 952.65 408.38 959.52 408.57 C 965.92 408.25 972.30 409.82 978.68 408.88 C 981.14 408.68 983.70 408.20 986.13 408.95 C 988.78 409.84 990.43 412.26 992.22 414.26 C 984.94 415.21 977.61 416.02 970.27 416.09 C 963.33 415.46 956.34 415.13 949.41 415.91 C 939.30 416.75 929.14 416.48 919.01 416.49 C 910.30 416.58 901.66 417.78 892.98 418.30 C 882.25 418.65 871.47 417.81 860.78 419.20 C 852.86 419.50 844.92 419.50 837.03 420.37 C 825.33 420.14 813.72 421.60 802.03 421.57 C 792.64 422.38 783.18 422.01 773.85 423.41 C 768.57 424.18 763.26 423.27 757.98 423.59 C 744.19 425.10 730.29 424.70 716.48 425.99 C 710.11 426.67 703.68 426.13 697.32 426.88 C 689.92 427.78 682.45 427.18 675.04 427.89 C 660.09 429.36 645.10 430.50 630.09 430.77 C 618.15 432.83 606.04 432.35 593.99 432.77 C 583.43 433.86 572.80 434.07 562.22 434.84 C 554.68 436.17 546.93 434.73 539.47 436.63 C 533.55 438.06 527.48 436.72 521.50 437.21 C 516.41 437.59 511.27 437.47 506.25 438.48 C 498.57 440.05 490.67 439.17 482.96 440.54 C 472.03 441.20 461.17 442.60 450.24 443.01 C 442.52 443.61 434.79 445.58 427.04 444.32 C 423.21 443.40 419.75 445.92 415.99 446.12 C 409.62 446.71 403.40 448.37 397.01 448.71 C 393.11 448.95 389.20 449.25 385.33 449.82 C 375.04 451.51 364.61 452.25 354.21 452.87 C 347.26 453.28 340.52 455.21 333.58 455.74 C 319.73 456.87 305.83 457.34 291.99 458.58 C 283.95 458.91 276.01 460.43 267.96 460.57 C 264.08 460.59 260.29 461.46 256.48 462.05 C 252.80 462.62 249.16 460.86 245.50 461.71 C 238.29 463.38 230.91 464.14 223.54 464.52 C 214.44 464.22 205.40 465.52 196.32 465.70 C 184.46 467.03 172.50 466.00 160.64 467.23 C 157.92 467.48 155.04 467.60 152.68 465.99 C 140.12 469.87 126.78 467.65 113.92 469.32 C 107.84 470.15 101.79 468.21 95.72 469.00 C 86.17 469.98 76.56 469.59 66.99 469.43 C 60.81 469.39 54.28 468.23 49.27 464.40 C 47.53 462.31 49.68 459.64 51.72 458.81 C 71.65 454.14 92.32 458.20 112.42 455.07 C 116.01 454.43 119.88 453.69 123.12 455.92 C 120.84 457.97 117.99 459.20 114.91 459.28 C 108.34 459.65 101.79 460.27 95.34 461.63 C 95.35 462.07 95.36 462.97 95.36 463.42 C 104.61 464.33 113.89 462.98 123.13 464.08 C 129.45 463.74 135.77 462.88 142.12 463.41 C 148.12 464.06 154.02 461.60 159.99 462.86 C 165.99 464.11 172.02 462.26 178.06 462.33 C 184.98 461.28 192.02 461.65 198.93 460.51 C 207.27 459.28 215.72 459.49 224.13 459.24 C 229.79 459.15 235.27 456.46 240.97 457.61 C 245.28 458.50 249.48 456.56 253.78 456.43 C 262.01 455.87 270.36 455.90 278.44 453.97 C 283.01 452.96 287.72 453.68 292.34 453.06 C 296.84 452.45 301.39 452.54 305.92 452.31 C 314.07 451.86 321.82 448.74 329.99 448.51 C 336.86 448.09 343.80 448.98 350.61 447.74 C 358.95 446.43 367.35 445.52 375.77 444.91 C 381.17 443.80 386.39 441.87 391.96 441.70 C 407.23 439.16 422.72 438.53 438.06 436.52 C 447.20 435.09 456.52 435.89 465.63 434.18 C 477.35 432.14 489.30 433.34 501.03 431.49 C 512.29 430.11 523.70 431.29 534.95 429.76 C 546.18 428.35 557.52 428.15 568.79 427.18 C 575.19 426.39 581.67 426.56 588.08 425.87 C 594.05 425.46 599.95 424.24 605.96 424.42 C 612.50 424.53 619.00 423.77 625.50 423.14 C 634.76 422.11 644.16 423.04 653.36 421.34 C 664.63 419.46 676.16 421.40 687.38 419.21 C 692.55 418.37 697.79 418.49 703.01 418.44 C 710.36 418.08 717.67 417.09 725.02 416.69 C 732.02 416.49 739.04 416.87 746.02 416.14 C 755.65 415.16 765.34 415.44 775.00 415.45 C 781.04 415.44 786.92 413.82 792.95 413.60 C 804.96 413.60 816.97 413.24 828.99 413.35 C 836.39 413.49 843.58 411.07 850.99 411.45 C 857.68 411.62 864.40 411.78 871.05 410.78 C 882.82 409.34 894.77 411.88 906.45 409.36 Z" />
</svg>
