<?xml version="1.0" encoding="UTF-8" standalone="no"?>
<svg
   xmlns:dc="http://purl.org/dc/elements/1.1/"
   xmlns:cc="http://creativecommons.org/ns#"
   xmlns:rdf="http://www.w3.org/1999/02/22-rdf-syntax-ns#"
   xmlns:svg="http://www.w3.org/2000/svg"
   xmlns="http://www.w3.org/2000/svg"
   xmlns:sodipodi="http://sodipodi.sourceforge.net/DTD/sodipodi-0.dtd"
   xmlns:inkscape="http://www.inkscape.org/namespaces/inkscape"
   width="100%" height="100%" 
   viewBox="0 0 340 420"
   version="1.1"
   id="svg2"
   inkscape:version="0.91 r13725"
   sodipodi:docname="logo.svg">
  <metadata
     id="metadata128">
    <rdf:RDF>
      <cc:Work
         rdf:about="">
        <dc:format>image/svg+xml</dc:format>
        <dc:type
           rdf:resource="http://purl.org/dc/dcmitype/StillImage" />
        <dc:title></dc:title>
      </cc:Work>
    </rdf:RDF>
  </metadata>
  <defs
     id="defs126" />
  <sodipodi:namedview
     pagecolor="#ffffff"
     bordercolor="#666666"
     borderopacity="1"
     objecttolerance="10"
     gridtolerance="10"
     guidetolerance="10"
     inkscape:pageopacity="0"
     inkscape:pageshadow="2"
     inkscape:window-width="2560"
     inkscape:window-height="1387"
     id="namedview124"
     showgrid="false"
     inkscape:zoom="3.5981948"
     inkscape:cx="273.67046"
     inkscape:cy="257.24426"
     inkscape:window-x="1912"
     inkscape:window-y="-8"
     inkscape:window-maximized="1"
     inkscape:current-layer="svg2" />
  <path
     d="m 300.43583,1.5429184 c 11.76707,5.1574826 24.44797,8.5749396 35.06337,16.0608006 8.43724,6.234045 15.22208,14.671285 19.50329,24.247679 4.25618,8.462278 6.32167,17.750753 9.35107,26.676203 C 348.7309,57.899681 335.42409,44.054594 323.95745,29.107909 320.05179,24.225827 317.34787,18.417399 312.80377,14.036043 308.59767,9.9551227 304.64193,5.6238386 300.43583,1.5429184 Z"
     id="path6"
     inkscape:connector-curvature="0"
     style="fill:#66b1f6" />
  <path
     d="M 8.9629527,15.550741 C 16.937022,11.006648 25.612108,7.9271809 34.212085,4.7726038 22.920704,15.801104 13.982736,28.845028 4.8069235,41.588517 -3.9808251,53.781206 -16.461432,62.443774 -27.64015,72.232976 c 3.442494,-8.424723 5.432881,-17.337654 8.424723,-25.912594 5.382809,-13.14407 15.58511,-24.210125 28.1783797,-30.769641 z"
     id="path8"
     inkscape:connector-curvature="0"
     style="fill:#66b1f6" />
  <path
     d="m 350.83394,25.940814 c 21.81916,5.783392 37.17895,27.877947 37.24154,50.097682 0.2754,15.046833 -1.22679,30.118694 0.11266,45.153004 -5.54555,-10.678 -14.97173,-18.46429 -24.05991,-26.000222 -10.40259,-8.587448 -22.23226,-16.223529 -29.20487,-28.103267 -3.74293,-7.460824 -7.41075,-15.322229 -7.59852,-23.822061 5.50799,11.929808 17.38773,18.902425 27.69017,26.250585 9.52632,6.559522 18.28903,14.758911 23.92221,24.986244 0.48821,1.752546 0.98893,3.505092 1.46462,5.270147 -0.20029,-2.829103 -0.2754,-5.658205 -0.16273,-8.487308 -0.32547,0.688498 -0.98894,2.090524 -1.32693,2.791542 -6.27159,-15.985689 -8.62502,-33.17312 -14.133,-49.396657 -2.70393,-7.485861 -8.07421,-13.544651 -13.94524,-18.739689 z"
     id="path10"
     inkscape:connector-curvature="0"
     style="fill:#66b1f6" />
  <path
     d="m -26.813952,34.866264 c 2.741478,-2.290824 6.221526,-3.292277 9.651502,-4.043366 -3.279757,4.318765 -6.834915,8.537386 -9.075667,13.532133 -4.331284,9.476248 -5.808426,19.878839 -7.89896,30.006033 -2.228232,9.501283 -6.321671,18.45177 -8.650049,27.915496 4.994747,-11.729521 13.519614,-21.869225 24.097461,-28.979541 7.798814,-5.933607 16.5364913,-10.978427 22.6954266,-18.777241 2.4911133,-3.041913 4.3187658,-6.547 6.1964904,-9.989494 -0.6634638,20.266904 -14.7463947,37.003689 -29.955961,49.008598 -11.429081,8.387168 -22.357437,18.026148 -29.442716,30.494238 -0.450653,-8.48732 0.525763,-17.01217 -0.650944,-25.47445 -0.726053,-13.507096 -1.439588,-27.65262 3.692858,-40.471216 3.930703,-9.46373 11.303899,-17.074773 19.340559,-23.22119 z"
     id="path12"
     inkscape:connector-curvature="0"
     style="fill:#66b1f6" />
  <path
     d="m 136.19754,59.289197 c 2.90422,-1.301889 6.02124,-1.940315 9.21337,-1.877724 -1.18923,2.891695 -2.79154,5.570582 -4.81949,7.949033 0.86375,0.05007 2.57875,0.162735 3.42997,0.212808 -0.17525,2.140606 -0.33799,4.293729 -0.48821,6.434335 0.40059,0.02504 1.20175,0.07511 1.60233,0.10015 -0.0626,-0.801162 -0.20029,-2.416005 -0.26288,-3.217168 1.20175,0.1377 3.60523,0.4131 4.81949,0.5508 0.30044,1.314406 0.6134,2.628813 0.92635,3.955739 -1.7901,-0.200291 -3.56767,-0.388063 -5.35778,-0.588354 -1.58981,1.402033 -3.17961,2.816586 -4.7569,4.231143 1.96536,-0.488209 3.91819,-1.001458 5.89606,-1.514702 -0.0125,0.976412 -0.025,2.916727 -0.0376,3.893145 0.43813,-0.03756 1.30188,-0.125179 1.74001,-0.175249 0.67599,-3.530123 4.4064,-3.680342 7.27305,-3.918186 0.8888,-1.577289 1.79011,-3.142059 2.6789,-4.719347 0.56332,0.600871 1.66491,1.815133 2.21571,2.416004 0.37554,-0.525762 1.11412,-1.602324 1.48966,-2.128087 1.28938,-0.61339 2.59126,-1.22678 3.89315,-1.852687 3.91819,1.201743 7.89896,2.190677 11.89225,3.12954 0.25037,-0.801162 0.7511,-2.416005 0.98894,-3.229686 0.4882,0.375545 1.4521,1.114116 1.92779,1.489661 1.40204,0.07511 2.81659,0.162737 4.21862,0.250363 0.15022,2.954286 0.35051,5.921091 0.67599,8.875374 2.26578,-0.05008 4.54409,-0.08764 6.83491,-0.11266 0.45066,0.613389 1.35197,1.865206 1.80262,2.478594 0.83871,0 2.52867,0 3.36738,-0.01252 0.66347,0.988937 1.3144,1.965355 1.99039,2.954293 1.62736,-0.16274 3.27975,-0.32548 4.91964,-0.488209 1.80262,-1.664916 3.6553,-3.267242 5.50799,-4.894608 0.31296,-1.777575 0.97641,-3.455011 2.19068,-4.832007 0.70101,2.090534 1.36448,4.193589 2.01542,6.309153 3.15458,-0.625908 6.29664,-1.251817 9.46373,-1.815135 0.66346,0.475688 1.97787,1.414557 2.64134,1.890245 0.10016,1.865205 0.21281,3.742931 0.31294,5.608136 l 3.39243,-0.262879 c -1.02649,1.890234 -2.31586,3.60522 -4.00581,4.957187 0.97641,-0.16274 2.91673,-0.500729 3.89315,-0.663469 -0.62591,0.826209 -1.87773,2.4786 -2.49112,3.304798 1.77758,-0.863758 3.44249,-3.091988 5.63318,-2.240755 1.4521,1.602326 2.5537,3.492572 3.76796,5.295187 -0.67598,1.402026 -1.35196,2.791543 -2.01543,4.193577 -1.5898,0.8262 -3.36738,1.50218 -4.36884,3.06695 -0.42561,-2.64133 -3.27975,-2.94177 -5.30769,-3.83056 -3.83056,1.38952 -7.93652,1.40204 -11.92981,1.94032 -1.87773,-0.15022 -3.74293,-0.36303 -5.60814,-0.57583 1.42707,1.00145 2.84163,2.00291 4.21862,3.06694 0.80117,-0.65094 2.41601,-1.95283 3.21717,-2.60377 0.23784,0.78864 0.71353,2.39096 0.95138,3.17961 1.72751,-0.52576 3.42998,-1.05153 5.17,-1.55226 0.0501,1.0265 0.15022,3.07948 0.20029,4.10596 3.81804,-0.0876 7.46083,1.01397 10.80318,2.81658 -0.28792,1.84018 -0.56332,3.68034 -0.85124,5.52052 2.05298,0.33799 4.13099,0.26288 6.17146,-0.22533 3.55515,0.35051 8.03666,3.63027 10.7531,-0.1377 -0.92635,-0.37555 -2.754,-1.11412 -3.68034,-1.47715 3.75544,0.90131 7.62356,0.92635 11.46663,0.97642 0.58836,1.5147 0.53828,3.8556 2.61629,4.09344 6.40931,1.20175 12.55572,4.00581 19.19034,3.64279 0.52577,1.11411 1.05153,2.22823 1.5773,3.34234 1.84017,-0.47569 3.66782,-0.95137 5.52051,-1.41454 1.07655,2.0029 2.15312,4.00581 3.2422,5.99619 -1.42707,2.86666 -2.95428,5.68325 -4.55661,8.46228 0.72605,-0.1377 2.15313,-0.42562 2.87917,-0.57584 0.26289,1.27686 0.52577,2.5537 0.80117,3.83056 -0.72606,0.50073 -2.16564,1.5147 -2.89169,2.01543 1.06404,-0.45066 3.19213,-1.35197 4.25617,-1.80262 l -1.32693,2.75399 c 2.9668,-1.039 8.3371,-2.12808 8.68761,2.41601 1.20175,0.0501 2.416,0.10016 3.64278,0.15022 -0.67598,-1.17671 -1.35196,-2.35342 -2.01543,-3.53012 2.36594,-2.87918 4.91964,-5.59562 7.73624,-8.03666 1.27684,2.95428 2.45355,5.94612 3.55515,8.963 3.12954,-0.86375 6.22153,-1.82765 9.21336,-3.05443 -0.0376,1.03901 -0.0876,2.09054 -0.11266,3.14205 2.39098,-0.80115 4.80698,-1.56476 7.22299,-2.32837 0.45064,2.59126 0.95137,5.15749 1.4521,7.73622 2.4786,0.2003 4.96971,0.40059 7.46082,0.60088 0.53828,2.62881 1.06405,5.27015 1.62737,7.89896 1.65239,1.1016 3.29227,2.21571 4.93216,3.35486 0.53827,-1.74003 1.10159,-3.48004 1.6649,-5.20755 3.12954,0.11266 6.25909,0.11266 9.38863,0.0876 0.0125,0.78865 0.0501,2.36594 0.0626,3.15459 4.71935,4.41891 5.64569,11.17871 5.0323,17.31261 1.3144,0.51324 2.64133,1.02649 3.98078,1.53974 -0.11266,2.07801 -0.21281,4.14351 -0.25036,6.22152 3.06694,3.26725 0.77611,6.89751 -1.79011,9.55136 -1.02649,-0.2754 -2.02793,-0.52576 -3.02939,-0.78865 -0.21281,1.9278 -0.42562,3.8556 -0.62591,5.7834 2.99184,0.40058 5.95864,0.93885 8.91294,1.5898 0.20029,1.85269 0.43813,3.68034 0.71353,5.53303 1.81513,-3.61775 3.31731,-7.3732 4.6943,-11.17872 -0.50071,16.29865 4.83202,31.99643 6.17146,48.13234 1.5898,14.67128 -3.40493,29.11723 -10.66547,41.64792 7.57349,-9.63899 13.9953,-20.14173 21.74404,-29.65552 6.30915,-7.87394 14.00782,-14.45849 20.81771,-21.86924 8.81279,-9.88934 16.14843,-21.719 17.85089,-35.0884 3.36739,18.60198 -1.8652,37.82988 -11.81714,53.6278 -10.66547,16.67419 -26.41332,29.36761 -43.17514,39.55739 -8.59998,5.17 -16.71175,11.0911 -24.92366,16.84944 17.33766,-30.91985 10.13971,-67.79836 19.30301,-100.92141 -2.49112,0.12518 -4.98223,0.26288 -7.46083,0.47568 -1.16418,-0.65093 -2.32837,-1.28936 -3.48005,-1.91527 -0.68849,0.65095 -2.07801,1.94031 -2.77903,2.59126 -3.16709,0.12518 -6.25907,0.77612 -9.16329,2.01542 2.97933,0.80117 6.63463,1.01398 7.28557,4.84453 -1.07656,-0.025 -3.21717,-0.0876 -4.29373,-0.12518 0.96389,1.94031 1.99039,3.8556 3.11702,5.70828 -0.62591,2.29083 -1.25182,4.59417 -1.9278,6.87247 -2.64133,-0.10016 -5.28266,0.22532 -7.83637,0.90131 -0.38806,1.26433 -0.76361,2.52867 -1.15166,3.80552 -2.95429,1.06404 -5.70829,2.6163 -8.29954,4.36884 0.28792,-2.39097 0.57583,-4.76942 0.87626,-7.13535 -0.56331,0.025 -1.66491,0.0751 -2.22823,0.10016 0.45066,1.84018 0.91383,3.68034 1.377,5.52052 -4.14351,0.6885 -8.33709,1.10159 -12.5432,0.9764 -0.72605,1.26434 -1.46462,2.52868 -2.17816,3.79301 -5.87101,1.36448 -11.90477,1.41455 -17.90097,1.46463 1.7275,-0.86376 3.49257,-1.68995 5.24511,-2.54119 -0.88879,-0.11266 -2.66637,-0.33799 -3.55515,-0.45065 -0.4131,0.61339 -1.2393,1.82764 -1.6524,2.42852 -2.2658,0.26288 -4.53158,0.5508 -6.77233,0.86375 -0.26288,-0.73857 -0.51324,-1.47714 -0.76361,-2.20319 -1.68995,4.85704 -7.7237,3.64278 -11.72951,4.43142 1.05153,1.02649 2.09053,2.0655 3.14205,3.10451 -0.61339,2.02794 -1.21426,4.06841 -1.7901,6.10886 -2.65384,-0.28792 -5.28266,-0.66346 -7.8614,-1.31441 -0.67598,6.93507 -1.35196,13.85761 -1.11411,20.84274 -2.1281,-0.0376 -4.25618,-0.0876 -6.37175,-0.12518 -0.12518,-10.25237 0.38806,-20.51727 -0.26288,-30.76964 -0.98893,-0.22533 -1.96535,-0.45065 -2.92925,-0.66346 -0.72606,1.66492 -1.05153,3.60523 -2.37845,4.94467 -2.77904,0.40059 -5.59562,0.338 -8.39969,0.36303 0.4757,2.15312 0.83872,4.31877 1.1642,6.49692 -2.2658,-0.16273 -4.50654,-0.31295 -6.77234,-0.42561 -1.37699,-0.0376 -2.75399,-0.0626 -4.11847,-0.0751 0.0751,3.11702 0.46317,6.2716 0.025,9.3761 -0.9013,2.26579 -2.2783,4.29373 -3.44249,6.4093 -1.84016,-2.52867 -4.23114,-4.73187 -5.48295,-7.61104 -0.22533,-2.97932 0.57584,-6.02123 -0.11266,-8.96301 -1.84018,-4.78193 -6.38427,-8.98803 -4.80698,-14.53358 -0.77613,-1.67743 -1.56477,-3.34235 -2.37844,-4.99475 -1.91529,4.54409 -1.96536,9.47625 -1.92781,14.3333 -2.10304,-0.15022 -4.2061,-0.28792 -6.29663,-0.4131 1.10159,-4.60669 1.05152,-9.36359 0.85123,-14.0579 0.47569,-0.78864 1.43959,-2.34089 1.91528,-3.12954 -0.60087,0.60087 -1.80262,1.7901 -2.41601,2.37846 -1.1767,-1.6524 -2.36593,-3.29229 -3.55515,-4.93216 0.30043,0.80116 0.90131,2.40348 1.20174,3.20465 0.0876,7.97407 -0.88879,15.89806 -1.8652,23.7845 -0.20029,-0.67598 -0.58835,-2.05297 -0.77613,-2.74147 -3.41745,-2.82911 -2.0655,-7.52342 -2.26579,-11.35397 -1.02648,-1.20175 -2.05297,-2.39098 -3.06695,-3.56769 0.57584,-0.66345 1.72751,-1.97786 2.30335,-2.64133 -0.67598,0.32548 -2.00291,0.9639 -2.67889,1.27686 -0.16274,0.72605 -0.50073,2.17816 -0.66347,2.90421 -1.23929,0.67598 -2.46607,1.33945 -3.69285,2.01543 -0.0125,4.94467 1.05152,9.96445 -0.0751,14.84654 -1.89024,7.24801 -0.42562,14.89661 -2.66637,22.11958 10.76562,1.97788 21.55627,3.65531 32.48463,4.35633 0.23785,1.2393 0.48821,2.46608 0.72606,3.70537 -9.05064,-0.65095 -18.12631,-0.9639 -27.18946,-1.35195 -7.82385,-0.338 -15.29719,-3.79302 -23.17111,-3.35488 5.49547,1.96536 11.82966,1.87773 16.73678,5.27015 0.32547,0.77613 0.97642,2.31585 1.30189,3.07946 -4.60668,-1.21425 -9.26344,-2.15311 -13.93272,-2.99183 -5.82094,-0.95139 -11.20375,-4.11848 -17.21246,-3.8556 -6.20902,0.28792 -12.75601,0.25037 -18.26401,3.55516 -2.16563,0.80116 -6.22152,3.35487 -7.61104,0.46317 2.07802,-1.67743 4.45647,-2.91673 6.80988,-4.16855 -0.0751,-0.4882 -0.21281,-1.47714 -0.28792,-1.96534 -3.86811,1.37699 -7.96155,1.5898 -12.01742,1.28936 -5.30771,-0.37554 -10.45267,1.56478 -15.76038,1.18923 -6.52196,-0.40058 -12.88118,1.5147 -19.3781,1.65239 -0.525773,0.36303 -1.58981,1.07657 -2.115579,1.42708 -0.388059,-0.66347 -1.164187,-2.0029 -1.564766,-2.66637 0.30044,-0.63843 0.888788,-1.9278 1.176707,-2.56623 6.584548,-1.68994 13.306808,-3.06695 20.129198,-2.81658 4.34381,0.33799 8.42473,-1.23929 12.4055,-2.71644 1.76506,-0.53828 4.00582,-1.9278 5.25762,0.30044 2.00292,0.15021 4.00582,0.31295 6.02125,0.50072 1.77758,-0.30043 3.56767,-0.56331 5.35777,-0.8262 2.37845,-5.15748 5.55806,-10.11468 6.1339,-15.89806 -1.40204,-0.50073 -2.80407,-1.00146 -4.19359,-1.50219 -0.26288,-3.71789 -0.46317,-7.7237 -2.71644,-10.86576 -2.71643,-3.64278 -6.03375,-6.7598 -9.38862,-9.78919 0.46317,2.45355 1.48966,4.90711 1.15167,7.4483 -0.93886,6.23404 -0.42562,12.64334 -2.3409,18.71465 -1.94031,-0.12518 -3.86811,-0.23785 -5.78338,-0.33799 -1.0265,-3.53012 -1.82766,-7.12283 -2.36593,-10.7531 l -0.83872,0 c -0.1377,1.65239 -0.26288,3.31731 -0.40058,4.99474 -1.68996,-1.07655 -3.37991,-2.11556 -5.0949,-3.12954 -0.56332,-0.61339 -1.68994,-1.82764 -2.25326,-2.44104 -0.0501,1.05153 -0.15022,3.14206 -0.20029,4.18107 -1.27686,-0.20029 -2.5412,-0.4131 -3.81804,-0.60087 -0.0501,-5.24512 -0.025,-10.49022 -0.11267,-15.73533 -2.99184,-0.43814 -5.10741,-2.36594 -6.58456,-4.89461 -1.26432,0.65095 -2.51614,1.35197 -3.73041,2.09054 -1.32692,-0.18777 -2.65384,-0.38806 -3.98076,-0.57583 3.41745,8.09925 0.65093,16.78684 -0.738583,24.98624 -1.151667,5.98369 -0.926337,12.49313 -4.356319,17.77579 -1.001447,-3.27975 -1.689945,-6.64714 -2.090535,-10.03957 1.189228,-5.09488 0.1377,-10.30244 0.43814,-15.44741 0.475688,-5.59561 -1.026488,-11.07857 -1.727506,-16.58655 -1.164187,2.21571 -0.963897,4.74437 -0.913828,7.1729 -1.08908,0.63843 -2.165648,1.27685 -3.254725,1.91528 -0.513238,1.26433 -1.039007,2.52867 -1.564765,3.80552 1.439586,2.84163 0.976417,5.88354 -0.36303,8.67508 -1.614846,-1.33944 -3.392421,-2.5537 -4.694308,-4.2061 -0.03756,-6.19648 -1.339447,-12.30535 -3.367392,-18.13881 -0.713527,-0.4131 -2.115564,-1.25182 -2.829102,-1.66492 -0.17525,0.58835 -0.538279,1.77758 -0.726048,2.36594 -0.275399,-0.65095 -0.826198,-1.94032 -1.101597,-2.59127 -1.877726,0.10016 -3.755451,0.21281 -5.633176,0.33799 1.502176,-0.72605 2.991842,-1.46462 4.494018,-2.19067 -2.178165,0.15022 -4.368839,0.30044 -6.546993,0.46317 -3.73041,9.11322 0.963898,19.54085 -3.74293,28.42874 -1.126638,-1.79009 -2.240755,-3.56768 -3.379902,-5.34525 0.463169,-0.5508 1.376997,-1.6524 1.840165,-2.21572 -1.013967,-5.53302 -1.852685,-11.12864 -1.652395,-16.77433 -2.816594,-0.88879 -5.683246,-1.60233 -8.574938,-2.17816 0.150209,-1.40204 0.275399,-2.77903 0.375538,-4.18107 -1.339447,0.0626 -2.666363,0.12518 -3.993292,0.18777 -0.513244,5.59562 -0.613389,11.27886 -2.228232,16.69923 -2.265787,7.12283 0.08763,15.0969 -3.329832,21.94433 -0.938861,-0.30043 -2.829103,-0.9013 -3.780484,-1.21425 0.06259,-0.93886 0.125182,-1.87773 0.187773,-2.81659 -0.813681,-6.19649 1.126634,-12.41801 -0.337991,-18.63954 -0.650944,-0.95139 -1.301889,-1.90276 -1.952834,-2.84162 0.350509,-2.20321 0.701018,-4.4064 1.064045,-6.59708 -0.425618,-1.91527 -0.813681,-3.83056 -1.189226,-5.73331 -5.670727,-0.23785 -11.541745,-1.62737 -16.398792,-4.71935 -0.01252,0.85123 -0.03755,1.70247 -0.05007,2.56622 -2.516151,0.53828 -5.032301,1.05153 -7.535934,1.61484 -2.365932,-2.05297 -4.7318648,-4.10595 -7.1103147,-6.13389 -2.6162964,1.12663 -5.2451096,2.25326 -7.8614061,3.35487 0.05007,-1.77759 0.1001501,-3.54264 0.1627367,-5.30771 -1.1141162,0.92635 -2.2157144,1.86521 -3.329832,2.79155 -1.815133,-1.38951 -3.6177469,-2.77903 -5.4203629,-4.16855 -0.863754,0.0751 -2.591259,0.25036 -3.467531,0.32547 -2.491114,-3.50508 -3.079467,-7.89896 -1.56477,-11.94232 1.577288,-4.36883 1.940315,-9.02559 0.726053,-13.53213 2.966804,-2.42853 4.130994,-6.38427 7.1353519,-8.85034 0.4131,0.1377 1.22678,0.38806 1.63988,0.51324 1.7400244,1.96535 4.1810652,2.65385 6.5845521,1.46463 2.7039231,-0.2754 5.4203642,-0.45065 8.136805,-0.57583 -0.3379898,-1.72752 -0.663462,-3.46753 -1.0014532,-5.19504 2.4660785,-0.98894 4.9321562,-0.83872 7.2229792,0.47569 -0.10015,-1.01398 -0.312954,-3.05443 -0.413099,-4.08092 0.726054,-0.0751 2.165642,-0.25037 2.879177,-0.32548 -0.07511,-2.62881 -0.112664,-5.24511 -0.175254,-7.87392 5.270146,-1.99038 9.926902,-5.11993 14.208114,-8.72516 -0.575835,1.68995 -1.176708,3.3799 -1.790097,5.06986 0.450653,1.47714 1.364479,4.44395 1.815133,5.92108 0.600871,-1.55224 1.802615,-4.64423 2.403487,-6.19648 0.513245,1.46462 1.039007,2.91673 1.577288,4.38135 0.75109,-1.02649 1.489661,-2.04046 2.240751,-3.05443 -1.08908,-1.35196 -2.165641,-2.69141 -3.254721,-4.04336 2.315859,-2.21572 5.057337,-4.53158 5.407845,-7.93652 -0.688498,-1.12663 -1.439589,-2.21572 -2.24075,-3.25473 0.751089,-1.96534 1.539733,-3.90565 2.328378,-5.84597 -0.75109,-0.12518 -2.25327,-0.35051 -3.00436,-0.47569 -0.05007,-0.63843 -0.175254,-1.9278 -0.237845,-2.57874 0.913827,0.12518 2.72896,0.36303 3.642786,0.48821 -0.363027,-0.83872 -1.114117,-2.51616 -1.477144,-3.35488 1.376998,0.2754 2.766514,0.53828 4.15603,0.81368 -0.763608,-1.06403 -1.527216,-2.11556 -2.290823,-3.15457 1.852687,-1.00146 3.655302,-2.06549 5.457918,-3.16709 -0.275399,-1.41456 -0.5508,-2.8291 -0.801162,-4.25618 2.428523,0.62591 4.068402,2.44104 5.558066,4.33129 0.363018,-0.7511 1.101597,-2.24076 1.464626,-2.99184 2.453554,1.35195 5.107407,3.6553 8.049169,2.19067 -0.287908,-2.77903 -0.876267,-5.57057 0.30044,-8.24947 0.650949,-0.10016 1.952835,-0.31295 2.603773,-0.4131 0.0626,0.47569 0.2003,1.42708 0.27541,1.90277 2.829103,-0.23785 5.683235,-0.36303 8.524858,-0.47569 0.225329,-1.05153 0.650948,-3.12954 0.863758,-4.18107 0.888788,-1.53974 3.9307,-2.40348 2.829103,-4.51906 -0.763608,-2.07801 -1.852685,-4.01833 -2.841623,-5.99619 -0.675978,-0.11267 -2.015425,-0.36303 -2.691403,-0.47569 -1.101597,-1.87773 -2.215715,-3.74293 -3.317312,-5.59562 2.766513,-0.22532 5.545546,-0.46317 8.324579,-0.77612 -0.675989,-1.33945 -1.351967,-2.6789 -2.027945,-4.00582 1.840165,-2.87917 3.404942,-6.559514 6.935063,-7.698661 2.541183,-0.600879 5.182516,-0.575839 7.79881,-0.650949 1.389516,1.364477 3.091992,2.253264 4.944679,2.816583 0.688498,-2.403484 2.541183,-3.204642 4.957187,-2.966803 -0.776129,-1.076556 -1.552246,-2.153124 -2.328374,-3.217161 3.054432,-0.450655 6.046275,-1.264333 9.000556,-2.17816 0.76361,1.151666 1.53974,2.30334 2.31585,3.455006 0.6134,-3.004358 1.67744,-5.88353 3.06696,-8.612483 2.99184,-2.854143 6.60959,-4.882088 10.90332,-4.218619 0.91383,-1.201747 1.82764,-2.403495 2.74147,-3.592722 3.73041,0.15022 7.46083,0.25037 11.20376,0.18778 -0.0125,-2.74148 0.51324,-5.432884 1.70247,-7.91148 0.81368,0.463172 2.45356,1.402034 3.26724,1.865205 0.0376,-3.893148 0,-7.861405 -1.41456,-11.554262 z"
     id="path14"
     inkscape:connector-curvature="0"
     style="fill:#66b1f6" />
  <path
     d="m 390.35378,59.138979 c 19.75366,20.417118 26.75131,51.574811 19.81625,78.889441 -1.55226,6.70974 -4.85705,12.79356 -6.88499,19.35309 -2.66637,8.65004 -5.18252,17.38772 -6.33419,26.38828 -1.55225,-5.42037 -3.15458,-10.84073 -5.33273,-16.04829 -8.23696,-17.86342 -22.64537,-31.82116 -32.3219,-48.79579 -4.51906,-9.22588 -8.1994,-19.002564 -9.53884,-29.242418 10.79066,16.886998 30.79468,25.774888 39.74516,44.051398 3.42998,6.32168 4.29373,13.5071 5.99621,20.37957 -0.0501,-9.32603 -1.81514,-18.57695 -1.21427,-27.94054 -1.03901,-17.25002 4.73187,-34.424933 1.22678,-51.574812 -0.85123,-5.420363 -2.95429,-10.490219 -5.15748,-15.459929 z"
     id="path16"
     inkscape:connector-curvature="0"
     style="fill:#66b1f6" />
  <path
     d="m -71.316016,95.591856 c 3.755449,-12.317857 10.139711,-23.89716 18.977532,-33.298301 -3.204649,5.345256 -5.558063,11.253828 -6.158935,17.500392 -1.977869,18.476803 4.168548,36.615613 3.279759,55.067383 0.08763,8.14932 -1.91528,16.17346 -1.314407,24.32279 1.777578,-6.35923 2.115569,-13.094 4.882083,-19.15279 5.971162,-13.82005 17.437798,-24.10998 28.39119,-33.9868 4.381357,-3.94322 8.487313,-8.324578 11.041019,-13.707395 -1.051527,11.353985 -4.681793,22.369955 -10.289929,32.271825 -8.149324,13.98278 -18.764725,26.36324 -26.576057,40.54632 -3.705377,6.63463 -5.921091,13.9202 -8.111769,21.14317 -1.977869,-20.1292 -14.032859,-37.57951 -16.599082,-57.57102 -0.525763,-11.05353 -1.126635,-22.48261 2.478596,-33.135574 z"
     id="path18"
     inkscape:connector-curvature="0"
     style="fill:#66b1f6" />
  <path
     d="m 189.73772,82.660599 c 0.67599,0.588359 0.67599,0.588359 0,0 z"
     id="path22"
     inkscape:connector-curvature="0"
     style="fill:#fdfefe" />
  <path
     d="m 240.33613,109.42443 c -0.4131,-2.66637 1.06405,-4.49402 3.12954,-5.88353 1.28937,1.87772 2.56623,3.76796 3.83056,5.68324 -2.32838,0.0626 -4.64424,0.1377 -6.9601,0.20029 z"
     id="path32"
     inkscape:connector-curvature="0"
     style="fill:#66b1f6" />
  <path
     d="m 237.21911,106.34496 c 2.39097,2.05298 4.08092,4.70682 4.73187,7.81133 -2.46609,0.1377 -4.93216,0.23784 -7.38573,0.33799 0.90131,-2.71644 1.79011,-5.42036 2.65386,-8.14932 z"
     id="path34"
     inkscape:connector-curvature="0"
     style="fill:#66b1f6" />
  <path
     d="m 211.05615,115.18278 c 0.6885,0.58835 0.6885,0.58835 0,0 z"
     id="path38"
     inkscape:connector-curvature="0"
     style="fill:#fdfefe" />
  <path
     d="m 77.036712,122.69367 c 0.738568,0.51325 0.738568,0.51325 0,0 z"
     id="path40"
     inkscape:connector-curvature="0"
     style="fill:#fdfefe" />
  <path
     d="m 418.51964,126.69948 c 7.47334,16.48643 8.17436,35.51403 4.98223,53.1396 -2.24075,11.51671 -5.87102,22.90824 -12.19269,32.86017 -8.90041,12.60579 -19.8538,23.80956 -27.5024,37.26657 -0.10016,-10.36503 1.35196,-20.98044 -1.50218,-31.12015 -8.13681,-25.9126 -16.91204,-52.41354 -16.67419,-79.86587 2.91674,5.54555 4.86956,11.56678 8.11177,16.93708 7.02268,11.77959 15.07186,23.24622 18.96501,36.54051 2.94177,11.20376 1.25182,22.80809 -0.97641,33.94925 4.39388,-12.66838 5.74583,-26.22554 10.59036,-38.78126 4.79446,-13.01889 12.08003,-25.17403 14.75891,-38.93148 1.67744,-7.21046 0.98894,-14.65877 1.43959,-21.99442 z"
     id="path42"
     inkscape:connector-curvature="0"
     style="fill:#66b1f6" />
  <path
     d="m -77.96316,204.81282 c -8.424723,-23.18364 -11.316418,-49.44674 -2.353414,-72.91829 0.538281,8.66256 1.001453,17.45032 3.855593,25.72481 5.407847,16.03577 14.721358,30.66951 18.163852,47.40628 2.290825,7.98659 2.929251,16.53649 6.872472,23.9848 -5.332738,-15.27216 -2.816587,-32.28433 3.793002,-46.74282 3.517603,-8.61249 8.775232,-16.32368 13.657315,-24.18508 3.204649,-5.09489 4.819492,-10.94088 6.910024,-16.5365 1.489662,9.90187 -0.87627,19.71612 -2.078014,29.4928 -2.491114,17.61305 -8.524868,34.41242 -13.256733,51.48719 -2.829105,9.92691 -1.539734,20.29194 -1.414552,30.44417 -9.651503,-17.28758 -26.100367,-29.89337 -34.149545,-48.15736 z"
     id="path44"
     inkscape:connector-curvature="0"
     style="fill:#66b1f6" />
  <path
     d="m 251.18937,141.43337 c 0.67599,0.61338 0.67599,0.61338 0,0 z"
     id="path50"
     inkscape:connector-curvature="0"
     style="fill:#fdfefe" />
  <path
     d="m 37.028672,175.29499 c 0.663463,0.60087 0.663463,0.60087 0,0 z"
     id="path62"
     inkscape:connector-curvature="0"
     style="fill:#fdfefe" />
  <path
     d="m 337.47706,175.38262 c 0.75109,0.47569 0.75109,0.47569 0,0 z"
     id="path64"
     inkscape:connector-curvature="0"
     style="fill:#fdfefe" />
  <path
     d="m 188.69871,195.29901 c 0.51325,0.72606 0.51325,0.72606 0,0 z"
     id="path74"
     inkscape:connector-curvature="0"
     style="fill:#fdfefe" />
  <path
     d="m 90.85677,199.04194 c 0.701019,0.58836 0.701019,0.58836 0,0 z"
     id="path82"
     inkscape:connector-curvature="0"
     style="fill:#fdfefe" />
  <path
     d="m -29.00463,199.70541 c 2.390968,8.39969 5.482954,16.64915 6.859952,25.31171 3.905667,21.91931 3.567676,44.41444 8.274505,66.22109 1.439588,7.22297 5.9711629,13.28176 8.1117684,20.27942 -6.7973614,-3.56769 -12.9938514,-8.12429 -19.4907774,-12.18017 -13.093997,-8.16185 -25.850003,-17.06226 -36.865985,-27.94054 -14.696322,-14.24567 -23.934725,-34.46251 -23.571698,-55.06739 -0.01252,-3.793 0.262881,-7.57349 0.488207,-11.35398 1.740025,15.99821 12.906226,28.45378 23.63429,39.50731 8.825303,8.73768 17.487871,17.73824 24.560633,27.99061 4.08092,5.11994 6.910025,11.24132 11.917289,15.59763 -11.0285,-16.08584 -12.705933,-36.72828 -8.537386,-55.38034 2.628814,-10.81569 4.130994,-21.86923 4.619202,-32.98535 z"
     id="path84"
     inkscape:connector-curvature="0"
     style="fill:#66b1f6" />
  <path
     d="m 22.394941,225.99354 c 4.606684,-2.20319 9.613948,-2.06549 14.107968,0.28792 -2.278306,0.85124 -3.655303,3.60523 -5.983681,3.89315 -3.317313,0.9639 -5.558064,-2.77903 -8.124287,-4.18107 z"
     id="path98"
     inkscape:connector-curvature="0"
     style="fill:#fdfefe" />
  <path
     d="m 63.103997,231.71435 c 4.18107,0.23784 -1.977865,3.68034 0,0 z"
     id="path102"
     inkscape:connector-curvature="0"
     style="fill:#fdfefe" />
  <path
     d="m 186.73337,259.90525 c 2.26578,-4.30625 1.3144,-9.4387 2.2783,-14.09546 0.38806,5.58311 0.0626,11.17872 0.42562,16.74931 0.28792,4.58164 -1.08908,9.15077 -0.1377,13.7199 -5.44541,-0.025 -8.58746,-4.6192 -11.717,-8.37465 0.0376,-1.11412 0.10016,-3.32984 0.12518,-4.43143 3.05443,-0.93886 6.6847,-1.20174 9.0256,-3.56767 z"
     id="path110"
     inkscape:connector-curvature="0"
     style="fill:#fdfefe" />
  <path
     d="m 336.28784,270.24525 c 4.89461,-7.54845 9.91438,-15.07187 15.93562,-21.79413 -1.81514,6.32168 -4.08092,12.5432 -5.0323,19.09021 -2.5537,14.22062 -3.20465,29.05464 -9.17582,42.43656 -4.39387,10.90332 -12.4055,19.67855 -20.65497,27.81536 3.69287,-2.05299 7.01018,-4.69432 10.1272,-7.53594 16.76182,-14.42092 38.29306,-21.16821 56.54454,-33.28579 10.31496,-6.59707 19.34056,-15.84799 24.29774,-27.13937 -0.26287,6.84743 -2.40348,13.46954 -5.48294,19.55336 -10.74058,20.78015 -28.97955,37.25406 -49.95998,47.30614 -18.00113,8.33709 -38.39321,7.84888 -56.88253,14.58365 4.18106,-4.43142 8.22443,-9.02559 11.717,-14.03285 13.10651,-20.7426 15.44741,-46.26713 28.56644,-66.9972 z"
     id="path114"
     inkscape:connector-curvature="0"
     style="fill:#66b1f6" />
  <path
     d="m -12.906274,251.30527 c 12.20520652,13.50709 22.7204626,28.99206 28.203417,46.49245 4.819493,12.53068 8.03666,25.79993 15.12194,37.3542 3.705376,6.47188 8.875375,11.89225 14.120485,17.14987 -13.294287,-3.42997 -26.901529,-5.29517 -40.3710709,-7.78629 -8.3871676,-2.0029 -16.9495901,-4.09344 -24.2852321,-8.81279 -17.012182,-9.83927 -31.971385,-23.80955 -41.33497,-41.20978 -3.329831,-6.0588 -5.971162,-12.58076 -6.922543,-19.46574 4.819492,6.3467 8.825304,13.49457 15.184529,18.48932 16.261092,13.41947 36.903541,19.54085 54.5040754,30.80719 7.773778,4.4815 13.8450866,11.39153 22.0069286,15.25964 -3.417459,-4.04337 -7.861406,-7.06024 -11.3039,-11.04102 -3.8055214,-5.47043 -8.0616963,-10.76561 -10.3274836,-17.0998 -7.9615507,-19.25294 -6.2215261,-41.0095 -14.5961754,-60.13725 z"
     id="path116"
     inkscape:connector-curvature="0"
     style="fill:#66b1f6" />
  <path
     d="m 298.20759,317.43871 c 5.80843,-5.4454 11.75455,-10.86576 18.68962,-14.87157 -6.17146,9.41365 -10.46519,19.87884 -15.40985,29.95596 -5.34526,11.379 -15.12195,20.85526 -27.05176,25.03632 -3.75545,1.36449 -7.62356,2.30334 -11.42908,3.48005 7.73622,0.65095 15.0969,-2.21571 22.70795,-2.94176 15.12194,-2.2658 30.48172,-2.37846 45.54107,-4.98224 9.42618,-1.74002 19.0276,-4.04336 27.10182,-9.43869 4.7569,-2.80407 8.62501,-6.75981 12.50564,-10.6154 -6.74728,14.67128 -19.50329,25.76238 -33.41098,33.47357 -12.65585,6.93506 -27.21448,10.51525 -41.66043,9.36358 -22.30736,-1.43959 -43.5632,-9.08818 -65.50754,-12.79357 13.21917,-2.95428 26.60109,-7.22297 37.06627,-16.17345 10.64045,-9.45122 19.9164,-20.36705 30.85727,-29.4928 z"
     id="path118"
     inkscape:connector-curvature="0"
     style="fill:#66b1f6" />
  <path
     d="m 23.909638,305.42128 c 11.24131,6.28411 20.191795,15.68525 29.718113,24.19761 9.638986,9.12574 18.464294,19.66603 30.581873,25.61215 8.312062,4.23114 17.425276,6.547 26.388286,8.96301 -23.859623,3.90566 -46.830444,13.80753 -71.341005,13.14407 -27.965574,0.76361 -55.092429,-15.83548 -68.950034,-39.82027 6.722253,4.8946 13.14407,10.50273 21.1181389,13.30681 16.8869984,5.99619 35.0383331,6.00871 52.7014591,7.56096 11.291377,0.0876 22.11959,4.35633 33.448521,3.91819 -7.586,-2.0655 -15.5851,-3.71789 -21.981884,-8.57494 -7.160392,-5.49548 -13.031407,-12.66839 -16.96211,-20.79267 -4.669274,-9.301 -9.613947,-18.45177 -14.721358,-27.51492 z"
     id="path120"
     inkscape:connector-curvature="0"
     style="fill:#66b1f6" />
  <path
     d="m 96.552525,374.9847 c 19.666045,-8.31205 41.560305,-14.47099 62.953835,-9.96445 5.00727,0.76361 10.06461,3.69285 15.14698,1.72751 9.12573,-3.31732 18.9525,-3.51762 28.55392,-3.27977 15.56007,0.61339 30.83224,4.8946 44.63977,12.06751 13.83257,5.42037 27.74024,12.46809 42.99988,11.92981 13.05645,0.52576 26.27563,-2.59126 37.32916,-9.67654 -9.08819,12.4055 -23.34637,19.87884 -37.81737,24.13502 -19.82877,4.75689 -40.9469,-0.37555 -58.17189,-10.74059 -10.36504,-5.78339 -19.25293,-13.95775 -29.96848,-19.14027 -6.44686,-2.31585 -13.56969,-1.37699 -20.24187,-0.71353 10.69051,6.37175 21.94434,11.86721 31.97139,19.34055 8.18688,6.29665 16.58657,12.46809 23.72192,19.96647 0.66346,2.754 -2.5412,4.16855 -4.06841,5.94613 -1.86521,1.17671 -3.54264,3.98078 -6.03376,3.24221 -4.03084,-2.59126 -6.63462,-6.75981 -9.98948,-10.08964 -13.5697,-12.50564 -27.11434,-25.62468 -43.93875,-33.71141 -4.01833,-1.75254 -7.99911,1.01397 -11.4416,2.85415 -14.57115,8.80026 -27.81536,19.76616 -39.65754,31.97137 -3.29227,3.11703 -5.38281,7.81133 -9.18833,10.13972 -4.00581,-2.26579 -7.16039,-5.85851 -10.95339,-8.49984 11.82966,-10.97842 23.95976,-21.7816 37.86744,-30.09365 5.90857,-4.2687 12.99385,-6.52197 18.68962,-11.0911 -6.12139,-2.2783 -12.79357,-1.22677 -18.76473,1.00145 -12.02996,5.25764 -21.66894,14.47101 -33.02291,20.89282 -15.597632,9.90186 -34.825526,13.98278 -53.06449,10.81569 -16.160942,-3.5802 -31.445617,-11.95485 -42.12361,-24.73589 7.673633,4.43143 16.010729,8.1368 24.911142,9.03811 7.398234,0.60088 14.884094,1.46463 22.257296,0.1377 13.356876,-1.6524 25.111426,-8.57494 37.404257,-13.46954 z"
     id="path122"
     inkscape:connector-curvature="0"
     style="fill:#66b1f6" />
</svg>
